# xmcd
#
# Track frame offsets:
#	150
#	22765
#	47165
#	71757
#	94427
#	116627
#	137212
#	160882
#	184342
#	205422
#
# Disc length: 3005 seconds
#
# Revision: 1
# Processed by: cddbd v1.5PL3 Copyright (c) Steve Scherf et al.
# Submitted via: audiograbber 1.80
#
DISCID=930bbb0a
DTITLE=Bobby Rush - Hoochie Man
DYEAR=1900
DGENRE=
TTITLE0=I Like It
TTITLE1=Hoochie Man
TTITLE2=Shut Up
TTITLE3=2 Eyes Full Of Tears
TTITLE4=Feelin' Bad
TTITLE5=Bare Mouth Woman
TTITLE6=Garbage Man
TTITLE7=Too Short, Too Little
TTITLE8=Beat Me Rockin'
TTITLE9=Scootchin
EXTD=April 25, 2000
EXTT0=
EXTT1=
EXTT2=
EXTT3=
EXTT4=
EXTT5=
EXTT6=
EXTT7=
EXTT8=
EXTT9=
PLAYORDER=
